<svg width="64" height="60" viewBox="0 0 64 60" fill="none" xmlns="http://www.w3.org/2000/svg">
<g filter="url(#filter0_d_2246_420)">
<mask id="path-1-outside-1_2246_420" maskUnits="userSpaceOnUse" x="5.5116" y="6.10864" width="53" height="48" fill="black">
<rect fill="white" x="5.5116" y="6.10864" width="53" height="48"/>
<path fill-rule="evenodd" clip-rule="evenodd" d="M20.8523 13.4767C18.4699 16.0537 17.4177 19.1263 17.4177 21.1254V35.3199C17.4177 39.1633 16.0446 41.5671 13.9724 42.9781H50.3597C50.3225 42.9535 50.2855 42.9285 50.2488 42.9033C48.1505 41.4649 46.8271 39.113 46.8271 35.6258V20.6166C46.8271 18.6022 46.0412 15.6696 43.8172 13.2493C41.6172 10.8552 37.9402 8.88747 32.0082 8.88747C26.8427 8.88747 23.2058 10.931 20.8523 13.4767ZM6.5116 42.9782V44.7569V44.757L6.59472 44.7569H26.9198V47.7352C26.9198 49.1299 27.4706 50.4684 28.4527 51.4561C29.435 52.444 30.7683 53 32.1596 53C33.5509 53 34.8842 52.444 35.8665 51.4561C36.8485 50.4684 37.3994 49.1299 37.3994 47.7352V44.7569H57.4357L57.5048 44.757V44.7569V42.9782V42.9781H57.4386C55.0654 42.9701 52.8542 42.5328 51.2546 41.4361C49.6979 40.369 48.6059 38.6 48.6059 35.6258V20.6166C48.6059 18.2048 47.6839 14.8282 45.127 12.0457C42.5461 9.23709 38.369 7.10864 32.0082 7.10864C26.323 7.10864 22.2199 9.37701 19.5462 12.2691C16.9014 15.1299 15.6389 18.621 15.6389 21.1254V35.3199C15.6389 38.8522 14.3554 40.6746 12.7079 41.6772C10.9956 42.7192 8.73782 42.9721 6.59099 42.9781H6.5116V42.9782ZM35.6205 44.7569H28.6986V47.7352C28.6986 48.6614 29.0645 49.5486 29.7141 50.2019C30.3636 50.8551 31.2433 51.2211 32.1596 51.2211C33.0758 51.2211 33.9556 50.8551 34.605 50.2019C35.2547 49.5486 35.6205 48.6614 35.6205 47.7352V44.7569Z"/>
</mask>
<path fill-rule="evenodd" clip-rule="evenodd" d="M20.8523 13.4767C18.4699 16.0537 17.4177 19.1263 17.4177 21.1254V35.3199C17.4177 39.1633 16.0446 41.5671 13.9724 42.9781H50.3597C50.3225 42.9535 50.2855 42.9285 50.2488 42.9033C48.1505 41.4649 46.8271 39.113 46.8271 35.6258V20.6166C46.8271 18.6022 46.0412 15.6696 43.8172 13.2493C41.6172 10.8552 37.9402 8.88747 32.0082 8.88747C26.8427 8.88747 23.2058 10.931 20.8523 13.4767ZM6.5116 42.9782V44.7569V44.757L6.59472 44.7569H26.9198V47.7352C26.9198 49.1299 27.4706 50.4684 28.4527 51.4561C29.435 52.444 30.7683 53 32.1596 53C33.5509 53 34.8842 52.444 35.8665 51.4561C36.8485 50.4684 37.3994 49.1299 37.3994 47.7352V44.7569H57.4357L57.5048 44.757V44.7569V42.9782V42.9781H57.4386C55.0654 42.9701 52.8542 42.5328 51.2546 41.4361C49.6979 40.369 48.6059 38.6 48.6059 35.6258V20.6166C48.6059 18.2048 47.6839 14.8282 45.127 12.0457C42.5461 9.23709 38.369 7.10864 32.0082 7.10864C26.323 7.10864 22.2199 9.37701 19.5462 12.2691C16.9014 15.1299 15.6389 18.621 15.6389 21.1254V35.3199C15.6389 38.8522 14.3554 40.6746 12.7079 41.6772C10.9956 42.7192 8.73782 42.9721 6.59099 42.9781H6.5116V42.9782ZM35.6205 44.7569H28.6986V47.7352C28.6986 48.6614 29.0645 49.5486 29.7141 50.2019C30.3636 50.8551 31.2433 51.2211 32.1596 51.2211C33.0758 51.2211 33.9556 50.8551 34.605 50.2019C35.2547 49.5486 35.6205 48.6614 35.6205 47.7352V44.7569Z" fill="white"/>
<path d="M20.8523 13.4767L21.5866 14.1555L21.5866 14.1555L20.8523 13.4767ZM13.9724 42.9781L13.4096 42.1515L10.7268 43.9781H13.9724V42.9781ZM50.3597 42.9781V43.9781H53.6825L50.9116 42.1442L50.3597 42.9781ZM50.2488 42.9033L50.8142 42.0785L50.8142 42.0785L50.2488 42.9033ZM43.8172 13.2493L44.5536 12.5727L43.8172 13.2493ZM6.5116 44.757H5.5116V45.7583L6.51293 45.757L6.5116 44.757ZM6.59472 44.7569V43.7569H6.59339L6.59472 44.7569ZM26.9198 44.7569H27.9198V43.7569H26.9198V44.7569ZM28.4527 51.4561L29.1618 50.7511L29.1618 50.7511L28.4527 51.4561ZM35.8665 51.4561L35.1573 50.7511H35.1573L35.8665 51.4561ZM37.3994 44.7569V43.7569H36.3994V44.7569H37.3994ZM57.4357 44.7569L57.4373 43.7569H57.4357V44.7569ZM57.5048 44.757L57.5032 45.757L58.5048 45.7586V44.757H57.5048ZM57.5048 42.9781H58.5048V41.9781H57.5048V42.9781ZM57.4386 42.9781L57.4353 43.9781H57.4386V42.9781ZM51.2546 41.4361L51.82 40.6114L51.2546 41.4361ZM45.127 12.0457L44.3907 12.7224V12.7224L45.127 12.0457ZM19.5462 12.2691L18.8119 11.5903L19.5462 12.2691ZM12.7079 41.6772L12.188 40.823H12.188L12.7079 41.6772ZM6.59099 42.9781V43.9781L6.59379 43.9781L6.59099 42.9781ZM6.5116 42.9781V41.9781H5.5116V42.9781H6.5116ZM35.6205 44.7569H36.6205V43.7569H35.6205V44.7569ZM28.6986 44.7569V43.7569H27.6986V44.7569H28.6986ZM29.7141 50.2019L29.005 50.907H29.005L29.7141 50.2019ZM34.605 50.2019L33.8959 49.4968L33.8959 49.4968L34.605 50.2019ZM18.4177 21.1254C18.4177 19.4103 19.3517 16.5729 21.5866 14.1555L20.118 12.7978C17.588 15.5345 16.4177 18.8424 16.4177 21.1254H18.4177ZM18.4177 35.3199V21.1254H16.4177V35.3199H18.4177ZM14.5351 43.8047C16.9288 42.1749 18.4177 39.4318 18.4177 35.3199H16.4177C16.4177 38.8949 15.1605 40.9593 13.4096 42.1515L14.5351 43.8047ZM50.3597 41.9781H13.9724V43.9781H50.3597V41.9781ZM49.6833 43.7281C49.7246 43.7564 49.7661 43.7844 49.8078 43.812L50.9116 42.1442C50.8789 42.1225 50.8464 42.1006 50.8142 42.0785L49.6833 43.7281ZM45.8271 35.6258C45.8271 39.4009 47.2803 42.0808 49.6833 43.7281L50.8142 42.0785C49.0207 40.8491 47.8271 38.8251 47.8271 35.6258H45.8271ZM45.8271 20.6166V35.6258H47.8271V20.6166H45.8271ZM43.0809 13.926C45.1178 16.1426 45.8271 18.8257 45.8271 20.6166H47.8271C47.8271 18.3787 46.9646 15.1965 44.5536 12.5727L43.0809 13.926ZM32.0082 9.88747C37.699 9.88747 41.0949 11.7648 43.0809 13.926L44.5536 12.5727C42.1395 9.94567 38.1814 7.88747 32.0082 7.88747V9.88747ZM21.5866 14.1555C23.76 11.8047 27.1348 9.88747 32.0082 9.88747V7.88747C26.5506 7.88747 22.6516 10.0574 20.118 12.7978L21.5866 14.1555ZM7.5116 44.7569V42.9782H5.5116V44.7569H7.5116ZM7.5116 44.757V44.7569H5.5116V44.757H7.5116ZM6.59339 43.7569L6.51027 43.757L6.51293 45.757L6.59605 45.7569L6.59339 43.7569ZM26.9198 43.7569H6.59472V45.7569H26.9198V43.7569ZM27.9198 47.7352V44.7569H25.9198V47.7352H27.9198ZM29.1618 50.7511C28.3667 49.9513 27.9198 48.8665 27.9198 47.7352H25.9198C25.9198 49.3932 26.5746 50.9855 27.7436 52.1612L29.1618 50.7511ZM32.1596 52C31.0353 52 29.957 51.5508 29.1618 50.7511L27.7436 52.1612C28.9129 53.3373 30.5012 54 32.1596 54V52ZM35.1573 50.7511C34.3622 51.5508 33.2838 52 32.1596 52V54C33.818 54 35.4063 53.3373 36.5756 52.1612L35.1573 50.7511ZM36.3994 47.7352C36.3994 48.8665 35.9525 49.9513 35.1573 50.7511L36.5756 52.1612C37.7446 50.9855 38.3994 49.3932 38.3994 47.7352H36.3994ZM36.3994 44.7569V47.7352H38.3994V44.7569H36.3994ZM57.4357 43.7569H37.3994V45.7569H57.4357V43.7569ZM57.5064 43.757L57.4373 43.7569L57.4341 45.7569L57.5032 45.757L57.5064 43.757ZM56.5048 44.7569V44.757H58.5048V44.7569H56.5048ZM56.5048 42.9782V44.7569H58.5048V42.9782H56.5048ZM56.5048 42.9781V42.9782H58.5048V42.9781H56.5048ZM57.4386 43.9781H57.5048V41.9781H57.4386V43.9781ZM50.6891 42.2609C52.5262 43.5204 54.9711 43.9698 57.4353 43.9781L57.442 41.9781C55.1597 41.9704 53.1823 41.5452 51.82 40.6114L50.6891 42.2609ZM47.6059 35.6258C47.6059 38.8889 48.8284 40.9854 50.6891 42.2609L51.82 40.6114C50.5674 39.7527 49.6059 38.3111 49.6059 35.6258H47.6059ZM47.6059 20.6166V35.6258H49.6059V20.6166H47.6059ZM44.3907 12.7224C46.7604 15.3011 47.6059 18.4281 47.6059 20.6166H49.6059C49.6059 17.9816 48.6075 14.3553 45.8633 11.3691L44.3907 12.7224ZM32.0082 8.10864C38.1281 8.10864 42.024 10.1468 44.3907 12.7224L45.8633 11.3691C43.0682 8.32734 38.6099 6.10864 32.0082 6.10864V8.10864ZM20.2804 12.948C22.7742 10.2506 26.6152 8.10864 32.0082 8.10864V6.10864C26.0308 6.10864 21.6657 8.50344 18.8119 11.5903L20.2804 12.948ZM16.6389 21.1254C16.6389 18.9052 17.783 15.6493 20.2804 12.948L18.8119 11.5903C16.0197 14.6105 14.6389 18.3368 14.6389 21.1254H16.6389ZM16.6389 35.3199V21.1254H14.6389V35.3199H16.6389ZM13.2277 42.5315C14.191 41.9453 15.0601 41.1087 15.6802 39.9052C16.2961 38.7097 16.6389 37.2059 16.6389 35.3199H14.6389C14.6389 36.9662 14.3399 38.1397 13.9023 38.9892C13.4687 39.8307 12.8723 40.4065 12.188 40.823L13.2277 42.5315ZM6.59379 43.9781C8.77614 43.972 11.2695 43.7232 13.2277 42.5315L12.188 40.823C10.7218 41.7153 8.69949 41.9722 6.58819 41.9781L6.59379 43.9781ZM6.5116 43.9781H6.59099V41.9781H6.5116V43.9781ZM7.5116 42.9782V42.9781H5.5116V42.9782H7.5116ZM35.6205 43.7569H28.6986V45.7569H35.6205V43.7569ZM27.6986 44.7569V47.7352H29.6986V44.7569H27.6986ZM27.6986 47.7352C27.6986 48.9248 28.1685 50.0657 29.005 50.907L30.4233 49.4968C29.9605 49.0315 29.6986 48.398 29.6986 47.7352H27.6986ZM29.005 50.907C29.8416 51.7484 30.9763 52.2211 32.1596 52.2211V50.2211C31.5104 50.2211 30.8856 49.9619 30.4233 49.4968L29.005 50.907ZM32.1596 52.2211C33.3429 52.2211 34.4776 51.7484 35.3142 50.907L33.8959 49.4968C33.4336 49.9619 32.8088 50.2211 32.1596 50.2211V52.2211ZM35.3142 50.907C36.1507 50.0657 36.6205 48.9248 36.6205 47.7352H34.6205C34.6205 48.398 34.3586 49.0315 33.8959 49.4968L35.3142 50.907ZM36.6205 47.7352V44.7569H34.6205V47.7352H36.6205Z" fill="#1271FF" mask="url(#path-1-outside-1_2246_420)"/>
</g>
<defs>
<filter id="filter0_d_2246_420" x="0.175103" y="0.772149" width="63.6662" height="58.5643" filterUnits="userSpaceOnUse" color-interpolation-filters="sRGB">
<feFlood flood-opacity="0" result="BackgroundImageFix"/>
<feColorMatrix in="SourceAlpha" type="matrix" values="0 0 0 0 0 0 0 0 0 0 0 0 0 0 0 0 0 0 127 0" result="hardAlpha"/>
<feOffset/>
<feGaussianBlur stdDeviation="2.66825"/>
<feComposite in2="hardAlpha" operator="out"/>
<feColorMatrix type="matrix" values="0 0 0 0 0.0694443 0 0 0 0 0.441666 0 0 0 0 1 0 0 0 1 0"/>
<feBlend mode="normal" in2="BackgroundImageFix" result="effect1_dropShadow_2246_420"/>
<feBlend mode="normal" in="SourceGraphic" in2="effect1_dropShadow_2246_420" result="shape"/>
</filter>
</defs>
</svg>
