<svg width="40" height="52" viewBox="0 0 40 52" fill="none" xmlns="http://www.w3.org/2000/svg">
<path d="M38.2812 27.3649C36.5624 25.3604 35.7814 23.6233 35.7814 20.6721V19.6686C35.7814 15.8228 34.8951 13.345 32.9681 10.8671C29.9982 7.01895 24.9985 4.69965 20.1041 4.69965H19.8959C15.1044 4.69965 10.2613 6.91245 7.23999 10.6044C5.20783 13.132 4.21865 15.7163 4.21865 19.6686V20.6721C4.21865 23.6233 3.48904 25.3604 1.7188 27.3649C0.416253 28.8417 0 30.7398 0 32.794C0 34.8506 0.675826 36.7984 2.03215 38.3816C3.8024 40.2797 6.30225 41.4914 8.85589 41.702C12.5531 42.1233 16.2502 42.2818 20.0012 42.2818C23.7498 42.2818 27.4469 42.0168 31.1465 41.702C33.6978 41.4914 36.1976 40.2797 37.9678 38.3816C39.3218 36.7984 40 34.8506 40 32.794C40 30.7398 39.5838 28.8417 38.2812 27.3649Z" fill="white"/>
<path d="M24.7264 45.1842C23.5501 44.9333 16.3826 44.9333 15.2064 45.1842C14.2008 45.4162 13.1134 45.956 13.1134 47.1396C13.1719 48.2688 13.8337 49.2654 14.7504 49.8974L14.748 49.8998C15.9336 50.823 17.325 51.4101 18.7819 51.6208C19.5583 51.7273 20.3487 51.7226 21.1532 51.6208C22.6077 51.4101 23.9991 50.823 25.1847 49.8998L25.1824 49.8974C26.0991 49.2654 26.7609 48.2688 26.8193 47.1396C26.8193 45.956 25.7319 45.4162 24.7264 45.1842Z" fill="#7C739E"/>
<circle cx="29.4119" cy="7.05882" r="7.05882" fill="#1271FF"/>
</svg>
