<svg width="34" height="51" viewBox="0 0 34 51" fill="none" xmlns="http://www.w3.org/2000/svg">
<g clip-path="url(#clip0_2104_233)">
<path d="M8.27901 23.3067C2.94504 28.6752 1.73438 37.5134 7.59194 42.5218C9.03178 43.7657 12.206 40.525 8.18094 34.24C5.79211 30.5083 8.11539 23.8632 8.27901 23.3067ZM17.8671 50.9672H16.1328C11.7859 50.7412 7.69088 48.8574 4.69006 45.7034C1.68924 42.5494 0.0108705 38.365 0 34.0109C0.204259 30.5057 1.33337 27.1173 3.27238 24.1906C9.16266 13.9447 17.0817 0.0654297 17.0817 0.0654297L30.924 24.1906C32.863 27.1173 33.9921 30.5057 34.1964 34.0109C34.1915 38.403 32.4896 42.6234 29.4464 45.7895C26.4032 48.9557 22.2543 50.8226 17.8671 51V50.9672Z" fill="#8840FF"/>
</g>
<defs>
<clipPath id="clip0_2104_233">
<rect width="34" height="51" fill="white"/>
</clipPath>
</defs>
</svg>
