<svg width="22" height="22" viewBox="0 0 22 22" fill="none" xmlns="http://www.w3.org/2000/svg">
<path d="M10.9617 10.0171H10.3025V11.0165H10.9617V10.0171Z" fill="white"/>
<path d="M10.6322 2.23389C5.64583 2.23389 1.59509 6.28463 1.59509 11.271C1.59509 16.2573 5.64583 20.3081 10.6322 20.3081C15.6185 20.3081 19.6693 16.2573 19.6693 11.271C19.6693 6.28463 15.6185 2.23389 10.6322 2.23389ZM3.33872 11.7281V11.0158H5.9329V11.7281H3.33872ZM8.18685 9.34661L7.93169 10.027H6.29438V12.6744H8.18685V14.0034H5.30562C4.91224 14.0034 4.63581 13.7269 4.63581 13.3442V11.8026H6.01795V10.9414H4.63581V9.34661C4.63581 8.96386 4.91224 8.68743 5.30562 8.68743H8.18685V9.34661ZM12.716 13.9927H11.0894L10.6428 12.3342H10.3132V13.9927H8.64402V8.6768H11.9718C12.3545 8.6768 12.631 8.95323 12.631 9.33598V11.4198C12.631 11.675 12.4396 11.9514 12.1951 12.0152L12.716 13.3229V13.9927ZM16.7774 13.9927H13.0244V12.6319L14.8105 10.1972V10.0164H13.2795L13.0244 9.33598V8.6768H16.7136V10.0483L16.0544 10.9414H14.651V11.8026H15.4272L14.9168 12.4936V12.6744H16.788V13.9927H16.7774ZM14.7148 11.7281V11.0158H17.309V11.7281H14.7148Z" fill="white"/>
<path d="M10.6319 0.639648C4.76308 0.639648 0 5.40273 0 11.2715C0 17.1403 4.76308 21.9034 10.6319 21.9034C16.5007 21.9034 21.2637 17.1403 21.2637 11.2715C21.2637 5.40273 16.5007 0.639648 10.6319 0.639648ZM10.6319 20.8402C5.35846 20.8402 1.06319 16.5449 1.06319 11.2715C1.06319 5.99811 5.35846 1.70284 10.6319 1.70284C15.9053 1.70284 20.2006 5.99811 20.2006 11.2715C20.2006 16.5449 15.9053 20.8402 10.6319 20.8402Z" fill="white"/>
</svg>
