<svg width="28" height="40" viewBox="0 0 28 40" fill="none" xmlns="http://www.w3.org/2000/svg">
<path d="M26.096 14.7821C25.0113 11.8456 23.4305 9.12584 21.4252 6.74643C17.955 2.64732 12.6 0 8.4 0C10.0625 6.25 7.1435 10.4571 4.48088 14.6223C2.275 18.0679 0 21.6313 0 25.7143C0 33.5911 6.28075 40 14 40C21.7192 40 28 33.5911 28 25.7143C28 21.8482 27.3595 18.1705 26.096 14.7821ZM16.8289 34.5259C15.925 35.508 14.7919 35.7143 14 35.7143C13.2081 35.7143 12.075 35.508 11.1711 34.5259C10.2673 33.5438 9.8 31.9857 9.8 30C9.8 27.7554 10.5717 26.0464 11.3172 24.3946C11.8842 23.1384 12.6 21.9643 12.6394 20.4223C13.6281 20.9473 14.7105 21.9321 15.6616 23.2152C17.2515 25.358 18.1991 27.8955 18.1991 30.0009C18.2 31.9857 17.7257 33.5509 16.8289 34.5259Z" fill="#FF0B3B"/>
</svg>
