<svg width="36" height="51" viewBox="0 0 36 51" fill="none" xmlns="http://www.w3.org/2000/svg">
<path d="M11.2309 50.9944C10.4981 50.7647 10.1137 50.2549 9.92706 49.5043C6.6538 36.3928 3.36994 23.2847 0.0754753 10.1798C-0.27849 8.77931 0.68109 7.97403 1.52867 8.00064C2.2684 8.02305 2.80489 8.4614 3.01782 9.3017C3.64555 11.7722 4.26637 14.2464 4.88028 16.7243C7.54609 27.3765 10.2114 38.0286 12.8763 48.6808C13.1888 49.93 12.9358 50.4706 11.813 51L11.2309 50.9944Z" fill="white"/>
<path d="M5.79008 8.04317C8.40783 8.07735 10.8578 7.35235 13.1719 6.1744C15.4042 5.03491 17.5783 3.78004 19.7842 2.58642C21.7253 1.53524 23.7191 0.606565 25.8987 0.244777C27.0341 0.0703248 28.1811 -0.0111149 29.329 0.00121644C30.3384 0.00121644 30.7738 0.408584 31.0552 1.42558C31.5849 3.3442 32.0854 5.27135 32.5929 7.19709C33.6854 11.3363 34.7757 15.4764 35.8637 19.6175C35.9025 19.76 35.9469 19.9024 35.976 20.052C36.0814 20.5904 35.8373 20.9365 35.2952 20.9579C34.4868 20.9892 33.6743 20.9579 32.8688 21.0177C30.7391 21.1772 28.7356 21.8452 26.843 22.8152C24.6245 23.9547 22.4616 25.1897 20.2737 26.3761C18.3062 27.4458 16.2805 28.3859 14.0704 28.7591C12.9694 28.9326 11.8565 29.0126 10.7427 28.9984C9.71254 28.9984 9.16626 28.4443 8.87787 27.3561C8.25671 25.0145 7.63876 22.6718 7.02407 20.3283L4.14566 9.40059C4.08587 9.21056 4.03953 9.01634 4.00701 8.81944C3.9557 8.37504 4.18863 8.06881 4.624 8.03747C5.01084 8.02038 5.40186 8.04317 5.79008 8.04317ZM19.4223 11.3662C19.3531 11.2714 19.2958 11.168 19.2518 11.0585C18.9287 9.85922 18.614 8.65707 18.2937 7.45633C18.1994 7.10024 18.094 6.74414 18.0011 6.41939C16.3373 7.31531 14.7248 8.19842 13.0943 9.04307C12.7601 9.21542 12.7032 9.36782 12.8003 9.72249C13.2163 11.2565 13.6059 12.7977 14.0052 14.3374C13.4797 14.5411 12.9695 14.8103 12.4259 14.9385C11.0907 15.2533 9.74167 15.5082 8.35653 15.7931L9.85395 21.4635C11.8575 21.4236 13.7127 20.9408 15.5637 20.2044C16.0309 21.9563 16.4843 23.6613 16.9682 25.4745C18.6986 24.5031 20.361 23.5773 22.011 22.6258C22.1025 22.5731 22.1496 22.3167 22.1191 22.1828C21.7364 20.6701 21.3343 19.1646 20.935 17.6576C20.9033 17.563 20.8653 17.4706 20.8213 17.3813L15.5955 20.2571C15.5026 19.9238 15.4416 19.7187 15.3862 19.5121C14.924 17.7849 14.4586 16.0571 13.9899 14.3289C14.0964 14.3154 14.2011 14.2896 14.3019 14.252C15.2517 13.7606 16.2098 13.2848 17.1443 12.7607C17.918 12.3262 18.6694 11.8334 19.4195 11.3662C19.4179 11.5266 19.4305 11.6867 19.457 11.8448C19.7343 12.9529 20.0366 14.0582 20.3277 15.165C20.5121 15.8615 20.6951 16.5566 20.8823 17.2574L26.1983 14.373C25.7019 12.4886 25.1972 10.5757 24.6606 8.54169C23.0578 9.42622 21.5215 10.2751 19.9839 11.1184C19.8022 11.211 19.6081 11.2836 19.4223 11.3662ZM33.0102 18.4168C32.5804 16.7816 32.1617 15.1636 31.7138 13.5526C31.6819 13.4387 31.4365 13.3062 31.2979 13.3176C30.5878 13.3559 29.881 13.4424 29.182 13.5768C28.199 13.7947 27.234 14.0996 26.2329 14.3745C26.7113 16.1806 27.1577 17.8698 27.6083 19.5734C28.5262 19.3142 29.3859 19.0264 30.2649 18.8384C31.144 18.6504 32.0493 18.5607 33.0088 18.4168H33.0102ZM24.6454 8.46905L30.0805 7.30535C29.6645 5.71148 29.2181 4.02931 28.7716 2.34571C26.9077 2.40949 25.0684 2.80367 23.3351 3.51085C23.7843 5.21581 24.2239 6.88088 24.644 8.46905H24.6454Z" fill="white"/>
</svg>
