<svg width="44" height="49" viewBox="0 0 44 49" fill="none" xmlns="http://www.w3.org/2000/svg">
<path fill-rule="evenodd" clip-rule="evenodd" d="M10.7705 0.839427C10.5188 0.587704 10.1107 0.587704 9.85894 0.839427L1.47944 9.21892C1.22772 9.47064 1.22772 9.87877 1.47944 10.1305L5.7769 14.4279L5.06884 15.1112C4.43937 15.7185 4.08383 16.5557 4.08383 17.4304V45.1265C4.08383 46.9064 5.52676 48.3493 7.30671 48.3493H39.3207C41.1007 48.3493 42.5436 46.9064 42.5436 45.1265V7.09645C42.5436 5.3165 41.1007 3.87356 39.3207 3.87356H18.0165C17.1816 3.87356 16.3794 4.19751 15.7786 4.7772L15.2339 5.3028L10.7705 0.839427ZM14.306 6.19809L10.3147 2.20678L2.8468 9.67471L6.70475 13.5327L14.306 6.19809ZM16.6737 5.7049C17.0342 5.35709 17.5156 5.16272 18.0165 5.16272H39.3207C40.3887 5.16272 41.2544 6.02848 41.2544 7.09645V45.1265C41.2544 46.1944 40.3887 47.0602 39.3207 47.0602H7.30671C6.23874 47.0602 5.37298 46.1944 5.37298 45.1265V17.4304C5.37298 16.9056 5.58631 16.4033 5.96399 16.0389L16.6737 5.7049Z" fill="#8840FF"/>
<path fill-rule="evenodd" clip-rule="evenodd" d="M9.39887 0.379356C9.90468 -0.126452 10.7248 -0.126452 11.2306 0.379356L15.242 4.39081L15.3268 4.30899C16.0489 3.61228 17.0131 3.22293 18.0165 3.22293H39.3207C41.46 3.22293 43.1942 4.95716 43.1942 7.09644V45.1265C43.1942 47.2658 41.46 49 39.3207 49H7.3067C5.16742 49 3.43319 47.2658 3.43319 45.1265V17.4304C3.43319 16.3791 3.86052 15.373 4.61705 14.643L4.84848 14.4197L1.01937 10.5905M9.39887 0.379356L1.01937 8.75886C0.513563 9.26466 0.513563 10.0847 1.01937 10.5905M10.319 1.29092L10.7705 0.839414L10.319 1.29092L10.3104 1.29092ZM10.3104 1.29092L9.86273 0.843216L10.3104 1.29092ZM3.7669 9.6747L10.3147 3.12689L13.3776 6.18979L6.71288 12.6207L3.7669 9.6747ZM18.0165 5.81333C17.6841 5.81333 17.3647 5.9423 17.1255 6.17309L6.41575 16.5071C6.16514 16.7489 6.02359 17.0822 6.02359 17.4304V45.1265C6.02359 45.8351 6.59806 46.4096 7.3067 46.4096H39.3207C40.0293 46.4096 40.6038 45.8351 40.6038 45.1265V7.09644C40.6038 6.3878 40.0293 5.81333 39.3207 5.81333H18.0165Z" fill="#8840FF"/>
<path fill-rule="evenodd" clip-rule="evenodd" d="M19.6858 10.9637C19.6389 10.9637 19.5939 10.9828 19.5613 11.0166L14.841 15.9055H33.1971C34.5617 15.9055 35.668 14.7992 35.668 13.4346C35.668 12.07 34.5617 10.9637 33.1971 10.9637H19.6858ZM18.6339 10.1212C18.9094 9.83575 19.2891 9.67456 19.6858 9.67456H33.1971C35.2737 9.67456 36.9571 11.358 36.9571 13.4346C36.9571 15.5112 35.2737 17.1946 33.1971 17.1946H13.7581C13.0261 17.1946 12.653 16.3156 13.1614 15.789L18.6339 10.1212Z" fill="#8840FF"/>
<path fill-rule="evenodd" clip-rule="evenodd" d="M18.1659 9.66946C18.564 9.25708 19.1127 9.02417 19.6859 9.02417H33.1972C35.6331 9.02417 37.6078 10.9989 37.6078 13.4348C37.6078 15.8708 35.6331 17.8455 33.1972 17.8455H13.7582C12.4521 17.8455 11.7862 16.277 12.6934 15.3374L18.1659 9.66946ZM19.8886 11.6146L16.3736 15.2551H33.1972C34.2025 15.2551 35.0174 14.4401 35.0174 13.4348C35.0174 12.4295 34.2025 11.6146 33.1972 11.6146H19.8886Z" fill="#8840FF"/>
<path fill-rule="evenodd" clip-rule="evenodd" d="M13.2967 22.3255C13.5484 22.0738 13.9565 22.0738 14.2083 22.3255L17.5444 25.6616C17.7023 25.6053 17.8724 25.5746 18.0497 25.5746H28.7926C28.9699 25.5746 29.14 25.6053 29.298 25.6616L32.634 22.3256C32.8857 22.0739 33.2939 22.0739 33.5456 22.3256C33.7973 22.5773 33.7973 22.9855 33.5456 23.2372L30.2096 26.5732C30.2659 26.7312 30.2966 26.9013 30.2966 27.0786V37.8216C30.2966 37.9989 30.266 38.169 30.2096 38.3269L33.5456 41.6628C33.7973 41.9146 33.7973 42.3227 33.5456 42.5744C33.2939 42.8261 32.8857 42.8261 32.634 42.5744L29.2981 39.2385C29.1402 39.2949 28.97 39.3256 28.7926 39.3256H18.0497C17.8723 39.3256 17.7021 39.2949 17.5441 39.2385L14.2083 42.5744C13.9566 42.8261 13.5484 42.8261 13.2967 42.5744C13.045 42.3227 13.045 41.9146 13.2967 41.6628L16.6326 38.3269C16.5763 38.169 16.5456 37.9989 16.5456 37.8216V27.0786C16.5456 26.9013 16.5763 26.7311 16.6327 26.5731L13.2967 23.2371C13.045 22.9854 13.045 22.5772 13.2967 22.3255ZM17.8348 27.0786C17.8348 26.96 17.931 26.8638 18.0497 26.8638H28.7926C28.9113 26.8638 29.0075 26.96 29.0075 27.0786V37.8216C29.0075 37.9402 28.9113 38.0364 28.7926 38.0364H18.0497C17.931 38.0364 17.8348 37.9402 17.8348 37.8216V27.0786Z" fill="#8840FF"/>
<path fill-rule="evenodd" clip-rule="evenodd" d="M12.8366 21.8652C13.3424 21.3594 14.1625 21.3594 14.6683 21.8652L17.7479 24.9448C17.8467 24.9309 17.9474 24.9237 18.0496 24.9237H28.7926C28.8948 24.9237 28.9956 24.9309 29.0945 24.9448L32.174 21.8653C32.6798 21.3595 33.4998 21.3595 34.0056 21.8653C34.5114 22.3711 34.5114 23.1912 34.0056 23.697L30.9262 26.7765C30.9401 26.8753 30.9472 26.9761 30.9472 27.0784V37.8213C30.9472 37.9235 30.9401 38.0243 30.9262 38.1231L34.0056 41.2025C34.5114 41.7083 34.5114 42.5284 34.0056 43.0342C33.4998 43.54 32.6798 43.54 32.1739 43.0342L29.0946 39.9549C28.9958 39.9688 28.8949 39.976 28.7926 39.976H18.0496C17.9474 39.976 17.8465 39.9688 17.7476 39.9549L14.6683 43.0342L14.2083 42.5741L14.6683 43.0342C14.1625 43.54 13.3424 43.54 12.8366 43.0342C12.3308 42.5284 12.3308 41.7083 12.8366 41.2025L13.2938 41.6596L12.8366 41.2025L15.9161 38.1231C15.9022 38.0243 15.895 37.9235 15.895 37.8213V27.0784C15.895 26.9761 15.9022 26.8752 15.9161 26.7763L12.8366 23.6969C12.3308 23.1911 12.3308 22.371 12.8366 21.8652ZM17.3815 26.4102L17.2934 26.6571C17.3718 26.5167 17.4881 26.4004 17.6285 26.3221L17.3815 26.4102ZM29.2138 26.3221C29.3542 26.4005 29.4705 26.5168 29.5488 26.6571L29.4607 26.4102L29.2138 26.3221ZM29.5489 38.2425C29.4705 38.3829 29.3542 38.4992 29.2139 38.5775L29.4608 38.4894L29.5489 38.2425ZM17.6284 38.5775C17.488 38.4992 17.3717 38.3829 17.2934 38.2425L17.3814 38.4894L17.6284 38.5775ZM13.7525 42.1184L13.7567 42.1226L13.7525 42.1184ZM18.4854 27.5141V37.3856H28.3568V27.5141H18.4854Z" fill="#8840FF"/>
</svg>
