<svg width="57" height="66" viewBox="0 0 57 66" fill="none" xmlns="http://www.w3.org/2000/svg">
<path fill-rule="evenodd" clip-rule="evenodd" d="M16.8597 1.70562L1.70629 16.8565C0.613782 17.9488 0 19.4304 0 20.9754V60.1755C0 63.3923 2.60771 66 5.82449 66H50.9036C54.1204 66 56.7281 63.3923 56.7281 60.1755V5.82449C56.7281 2.60771 54.1204 0 50.9036 0H20.9779C19.4333 0 17.9519 0.61352 16.8597 1.70562ZM21.5539 9.38706L13.4084 17.5312H30.4268H42.8046C45.3676 17.5312 47.4453 15.4536 47.4453 12.8906C47.4453 10.3277 45.3676 8.24998 42.8047 8.24998H24.2994C23.2697 8.24998 22.2821 8.659 21.5539 9.38706ZM15.4596 27.3978C14.679 26.6173 13.4135 26.6173 12.633 27.3978C11.8524 28.1782 11.8524 29.4435 12.633 30.2239L17.3851 34.9753C17.3637 35.1279 17.3526 35.2835 17.3526 35.4413V52.0169C17.3526 52.1746 17.3637 52.3301 17.3851 52.4825L12.633 57.2339C11.8524 58.0143 11.8524 59.2796 12.633 60.06C13.4135 60.8405 14.6791 60.8404 15.4596 60.06L20.2116 55.3089C20.3641 55.3303 20.5198 55.3414 20.6776 55.3414H37.256C37.4138 55.3414 37.5695 55.3303 37.722 55.3089L42.474 60.06C43.2545 60.8405 44.5201 60.8405 45.3006 60.06C46.0812 59.2796 46.0812 58.0143 45.3006 57.2339L40.5485 52.4825C40.5699 52.3301 40.581 52.1746 40.581 52.0169V35.4413C40.581 35.2836 40.5699 35.128 40.5484 34.9755L45.3006 30.2241C46.0812 29.4437 46.0812 28.1784 45.3006 27.3979C44.5201 26.6175 43.2546 26.6175 42.474 27.3979L37.7218 32.1494C37.5693 32.1279 37.4137 32.1169 37.256 32.1169H20.6776C20.5199 32.1169 20.3644 32.1279 20.212 32.1493L15.4596 27.3978ZM21.3501 51.3446V36.1137H36.5835V51.3446H21.3501Z" fill="white"/>
<path d="M1.37319 11.685L4.12568 14.437L13.4085 5.15576L10.6555 2.40327C9.89734 1.64522 8.66822 1.64522 7.91005 2.40327L1.37319 8.93905C0.614833 9.69728 0.614834 10.9267 1.37319 11.685Z" fill="white"/>
</svg>
