<svg width="74" height="60" viewBox="0 0 74 60" fill="none" xmlns="http://www.w3.org/2000/svg">
<rect x="35.0658" y="39" width="38" height="8" rx="4" fill="#FAFF12"/>
<rect x="24.0658" y="13" width="49" height="8" rx="4" fill="white"/>
<rect x="24.0658" width="49" height="8" rx="4" fill="white"/>
<rect x="35.0658" y="52" width="38" height="8" rx="4" fill="#FAFF12"/>
<rect x="35.0658" y="26" width="38" height="8" rx="4" fill="#FAFF12"/>
<path fill-rule="evenodd" clip-rule="evenodd" d="M10.6838 26.8787L2.87868 34.6838C2.31607 35.2464 2 36.0095 2 36.8051V57C2 58.6569 3.34315 60 5 60H28.2188C29.8756 60 31.2188 58.6569 31.2188 57V29C31.2188 27.3431 29.8756 26 28.2188 26H12.8051C12.0095 26 11.2464 26.3161 10.6838 26.8787ZM13.1017 30.8358L8.90625 35.0312H17.6719H24.0469C25.3672 35.0312 26.4375 33.9609 26.4375 32.6406C26.4375 31.3203 25.3672 30.25 24.0469 30.25H14.5159C13.9855 30.25 13.4768 30.4607 13.1017 30.8358ZM9.96277 40.114C9.56073 39.712 8.9089 39.712 8.50686 40.114C8.10483 40.5161 8.10483 41.1679 8.50686 41.5699L10.9546 44.0176C10.9435 44.0962 10.9378 44.1764 10.9378 44.2577V52.7966C10.9378 52.8779 10.9435 52.958 10.9545 53.0365L8.50687 55.4841C8.10484 55.8862 8.10484 56.538 8.50687 56.94C8.90891 57.3421 9.56074 57.3421 9.96277 56.94L12.4103 54.4925C12.4889 54.5035 12.5691 54.5092 12.6504 54.5092H21.1893C21.2707 54.5092 21.3508 54.5035 21.4294 54.4925L23.877 56.94C24.279 57.3421 24.9308 57.3421 25.3329 56.94C25.7349 56.538 25.7349 55.8862 25.3329 55.4841L22.8852 53.0365C22.8962 52.9579 22.9019 52.8779 22.9019 52.7966V44.2577C22.9019 44.1764 22.8962 44.0963 22.8852 44.0177L25.3329 41.57C25.7349 41.168 25.7349 40.5161 25.3329 40.1141C24.9308 39.7121 24.279 39.7121 23.877 40.1141L21.4293 42.5618C21.3507 42.5508 21.2706 42.5451 21.1893 42.5451H12.6504C12.5692 42.5451 12.4891 42.5508 12.4106 42.5618L9.96277 40.114ZM12.9968 52.4503V44.604H20.843V52.4503H12.9968Z" fill="white"/>
<path d="M2.70711 32.0196L4.125 33.4375L8.90625 28.6562L7.48836 27.2384C7.09783 26.8478 6.46467 26.8478 6.07414 27.2384L2.70711 30.6054C2.31658 30.9959 2.31658 31.6291 2.70711 32.0196Z" fill="white"/>
<circle cx="10.5658" cy="10.5" r="10.5" fill="#1271FF"/>
</svg>
