<svg width="68" height="73" viewBox="0 0 68 73" fill="none" xmlns="http://www.w3.org/2000/svg">
<rect width="68" height="8" rx="4" fill="white"/>
<rect x="32" y="52" width="36" height="8" rx="4" fill="#1271FF"/>
<rect x="15" y="26" width="53" height="8" rx="4" fill="white"/>
<rect y="13" width="68" height="8" rx="4" fill="white"/>
<rect x="32" y="65" width="36" height="8" rx="4" fill="#1271FF"/>
<rect x="25" y="39" width="43" height="8" rx="4" fill="white"/>
<g clip-path="url(#clip0_2104_215)">
<path d="M5.84401 52.9089C2.07885 56.8037 1.22427 63.2158 5.35902 66.8493C6.37538 67.7517 8.61598 65.4006 5.77478 60.8409C4.08855 58.1336 5.72851 53.3127 5.84401 52.9089ZM12.612 72.9764H11.3879C8.31949 72.8124 5.42886 71.4457 3.31063 69.1575C1.19241 66.8693 0.00767331 63.8335 0 60.6747C0.144183 58.1317 0.941202 55.6735 2.30991 53.5502C6.46776 46.1169 12.0577 36.0476 12.0577 36.0476L21.8287 53.5502C23.1974 55.6735 23.9944 58.1317 24.1386 60.6747C24.1352 63.8612 22.9338 66.923 20.7857 69.22C18.6376 71.517 15.7089 72.8714 12.612 73.0001V72.9764Z" fill="white"/>
</g>
<defs>
<clipPath id="clip0_2104_215">
<rect width="24" height="37" fill="white" transform="translate(0 36)"/>
</clipPath>
</defs>
</svg>
