<svg width="68" height="60" viewBox="0 0 68 60" fill="none" xmlns="http://www.w3.org/2000/svg">
<rect x="32" y="39" width="36" height="8" rx="4" fill="#FFA012"/>
<rect x="15" y="13" width="53" height="8" rx="4" fill="white"/>
<rect width="68" height="8" rx="4" fill="white"/>
<rect x="32" y="52" width="36" height="8" rx="4" fill="#FFA012"/>
<rect x="25" y="26" width="43" height="8" rx="4" fill="white"/>
<g clip-path="url(#clip0_2206_810)">
<path d="M5.84401 39.9089C2.07885 43.8037 1.22427 50.2158 5.35902 53.8493C6.37538 54.7517 8.61598 52.4006 5.77478 47.8409C4.08855 45.1336 5.72851 40.3127 5.84401 39.9089ZM12.612 59.9764H11.3879C8.31949 59.8124 5.42886 58.4457 3.31063 56.1575C1.19241 53.8693 0.00767331 50.8335 0 47.6747C0.144183 45.1317 0.941202 42.6735 2.30991 40.5502C6.46776 33.1169 12.0577 23.0476 12.0577 23.0476L21.8287 40.5502C23.1974 42.6735 23.9944 45.1317 24.1386 47.6747C24.1352 50.8612 22.9338 53.923 20.7857 56.22C18.6376 58.517 15.7089 59.8714 12.612 60.0001V59.9764Z" fill="white"/>
</g>
<defs>
<clipPath id="clip0_2206_810">
<rect width="24" height="37" fill="white" transform="translate(0 23)"/>
</clipPath>
</defs>
</svg>
