<svg width="29" height="29" viewBox="0 0 29 29" fill="none" xmlns="http://www.w3.org/2000/svg">
<g clip-path="url(#clip0_2104_135)">
<path d="M14.9495 12.7891H14.0505V14.1521H14.9495V12.7891Z" fill="white"/>
<path d="M14.5 2.17505C7.69955 2.17505 2.17505 7.69955 2.17505 14.5C2.17505 21.3006 7.69955 26.8251 14.5 26.8251C21.3006 26.8251 26.8251 21.3006 26.8251 14.5C26.8251 7.69955 21.3006 2.17505 14.5 2.17505ZM4.55305 15.1236V14.152H8.09105V15.1236H4.55305ZM11.165 11.8755L10.817 12.8035H8.58405V16.414H11.165V18.2265H7.23555C6.69905 18.2265 6.32205 17.8496 6.32205 17.3275V15.225H8.20705V14.0505H6.32205V11.8755C6.32205 11.3535 6.69905 10.9765 7.23555 10.9765H11.165V11.8755ZM17.342 18.212H15.1236L14.5145 15.95H14.0651V18.212H11.7886V10.962H16.327C16.849 10.962 17.2261 11.3391 17.2261 11.861V14.703C17.2261 15.0511 16.965 15.4281 16.6315 15.515L17.342 17.2986V18.212ZM22.8811 18.212H17.7626V16.3561L20.1986 13.0356V12.789H18.1105L17.7626 11.861V10.962H22.7941V12.8326L21.8951 14.0505H19.9811V15.225H21.0396L20.3435 16.1676V16.414H22.8955V18.212H22.8811ZM20.068 15.1236V14.152H23.6061V15.1236H20.068Z" fill="white"/>
<path d="M14.5 0C6.496 0 0 6.496 0 14.5C0 22.504 6.496 29 14.5 29C22.504 29 29 22.504 29 14.5C29 6.496 22.504 0 14.5 0ZM14.5 27.55C7.308 27.55 1.45 21.692 1.45 14.5C1.45 7.308 7.308 1.45 14.5 1.45C21.692 1.45 27.55 7.308 27.55 14.5C27.55 21.692 21.692 27.55 14.5 27.55Z" fill="white"/>
</g>
<defs>
<clipPath id="clip0_2104_135">
<rect width="29" height="29" fill="white"/>
</clipPath>
</defs>
</svg>
