<svg width="53" height="48" viewBox="0 0 53 48" fill="none" xmlns="http://www.w3.org/2000/svg">
<path fill-rule="evenodd" clip-rule="evenodd" d="M52.9906 14.5441H41.7687C36.5464 14.5533 32.3159 18.6781 32.3064 23.7699C32.2994 28.8731 36.5347 33.0164 41.7687 33.0233H53V33.834C53 42.736 47.6034 48 38.4709 48H14.5314C5.39658 48 0 42.736 0 33.834V14.4453C0 5.54333 5.39658 0.299988 14.5314 0.299988H38.4615C47.594 0.299988 52.9906 5.54333 52.9906 14.4453V14.5441ZM12.5598 14.5233H27.5058H27.5153H27.5341C28.653 14.5188 29.5575 13.6299 29.5528 12.5367C29.5481 11.4458 28.6341 10.5639 27.5153 10.5684H12.5598C11.448 10.573 10.5458 11.4527 10.5411 12.539C10.5364 13.6299 11.4409 14.5188 12.5598 14.5233Z" fill="white"/>
<path d="M37.1991 24.9363C37.7533 27.4569 39.9632 29.2303 42.4863 29.1842H51.0986C52.1484 29.1842 53 28.3148 53 27.2401V20.5315C52.9977 19.4591 52.1484 18.5874 51.0986 18.5851H42.2836C39.4136 18.5943 37.0955 20.9766 37.1 23.9123C37.1 24.2559 37.1338 24.5996 37.1991 24.9363Z" fill="#7C739E"/>
<circle cx="42.4" cy="23.885" r="2.65" fill="white"/>
</svg>
