<svg width="66" height="60" viewBox="0 0 66 60" fill="none" xmlns="http://www.w3.org/2000/svg">
<g filter="url(#filter0_d_2246_426)">
<path d="M13.048 17.3651C10.7355 17.3651 8.77883 15.4677 8.77883 13.0959C8.77883 10.7241 10.6763 8.82668 13.048 8.82668H53.5461V7.04785H13.048C9.72754 7.10715 7 9.83469 7 13.1552V45.6485C7 49.6805 10.2612 52.9417 14.2932 52.9417H59.0012V43.1581V28.4531V17.3651H13.048ZM57.2816 41.3793H47.9131C44.8298 41.3793 42.3395 38.8889 42.3395 35.8056C42.3395 32.7223 44.8298 30.232 47.9131 30.232H57.2223V41.3793H57.2816ZM47.9131 28.4531C43.8811 28.4531 40.5606 31.7736 40.5606 35.8056C40.5606 39.8376 43.8811 43.1581 47.9131 43.1581H57.2223V51.1629H14.2932C11.2692 51.1629 8.77883 48.6725 8.77883 45.6485V17.4244C9.84613 18.4917 11.3878 19.2032 13.048 19.2032H57.2816V28.4531H47.9131Z" fill="white"/>
<path d="M53.5461 9.32668H54.0461V8.82668V7.04785V6.54785H53.5461H13.048V6.54777L13.0391 6.54793C9.45121 6.612 6.5 9.55684 6.5 13.1552V45.6485C6.5 49.9567 9.98505 53.4417 14.2932 53.4417H59.0012H59.5012V52.9417V43.1581V28.4531V17.3651V16.8651H59.0012H13.048C11.0072 16.8651 9.27883 15.187 9.27883 13.0959C9.27883 11.0002 10.9524 9.32668 13.048 9.32668H53.5461ZM47.9131 30.732H56.7223V40.8793H47.9131C45.106 40.8793 42.8395 38.6128 42.8395 35.8056C42.8395 32.9985 45.106 30.732 47.9131 30.732ZM47.9131 27.9531C43.605 27.9531 40.0606 31.4975 40.0606 35.8056C40.0606 40.1138 43.605 43.6581 47.9131 43.6581H56.7223V50.6629H14.2932C11.5453 50.6629 9.27883 48.3964 9.27883 45.6485V18.4951C10.3373 19.2406 11.6521 19.7032 13.048 19.7032H56.7816V27.9531H47.9131Z" stroke="#1271FF"/>
</g>
<defs>
<filter id="filter0_d_2246_426" x="0.663506" y="0.711358" width="64.6742" height="58.5668" filterUnits="userSpaceOnUse" color-interpolation-filters="sRGB">
<feFlood flood-opacity="0" result="BackgroundImageFix"/>
<feColorMatrix in="SourceAlpha" type="matrix" values="0 0 0 0 0 0 0 0 0 0 0 0 0 0 0 0 0 0 127 0" result="hardAlpha"/>
<feOffset/>
<feGaussianBlur stdDeviation="2.66825"/>
<feComposite in2="hardAlpha" operator="out"/>
<feColorMatrix type="matrix" values="0 0 0 0 0.0694443 0 0 0 0 0.441666 0 0 0 0 1 0 0 0 1 0"/>
<feBlend mode="normal" in2="BackgroundImageFix" result="effect1_dropShadow_2246_426"/>
<feBlend mode="normal" in="SourceGraphic" in2="effect1_dropShadow_2246_426" result="shape"/>
</filter>
</defs>
</svg>
